HIERARCHY
ROOT Hips
{
     OFFSET 25.62650 96.38690 -17.75550
     CHANNELS 6 Xposition Yposition Zposition Zrotation Xrotation Yrotation
     JOINT Spine
     {
          OFFSET 0.00000 11.89050 -0.00000
          CHANNELS 3 Zrotation Xrotation Yrotation
          JOINT Spine1
          {
               OFFSET -0.00000 25.65740 0.12766
               CHANNELS 3 Zrotation Xrotation Yrotation
               JOINT HEad
               {
                    OFFSET -0.00000 8.73416 0.01134
                    CHANNELS 3 Zrotation Xrotation Yrotation
                    End Site
                    {
                         OFFSET -0.29000 12.77420 2.51395
                    }
               }
               JOINT LeftShoulder1
               {
                    OFFSET 8.99000 -0.36225 -0.22000
                    CHANNELS 3 Zrotation Xrotation Yrotation
                    JOINT LeftArm
                    {
                         OFFSET 10.28270 -0.00338 0.32212
                         CHANNELS 3 Zrotation Xrotation Yrotation
                         JOINT LeftForeArm
                         {
                              OFFSET 32.76690 0.09914 -1.42434
                              CHANNELS 3 Zrotation Xrotation Yrotation
                              JOINT LeftHand
                              {
                                   OFFSET 27.56430 0.08536 1.02216
                                   CHANNELS 3 Zrotation Xrotation Yrotation
                                   End Site
                                   {
                                        OFFSET 16.74430 -0.60000 1.50291
                                   }
                              }
                         }
                    }
               }
               JOINT RightShoulder
               {
                    OFFSET -8.99000 -0.36225 -0.22000
                    CHANNELS 3 Zrotation Xrotation Yrotation
                    JOINT RightArm
                    {
                         OFFSET -10.28270 -0.00338 0.32212
                         CHANNELS 3 Zrotation Xrotation Yrotation
                         JOINT RightForeArm
                         {
                              OFFSET -32.89710 0.09914 -1.42434
                              CHANNELS 3 Zrotation Xrotation Yrotation
                              JOINT RightHand
                              {
                                   OFFSET -27.49210 0.08536 1.02216
                                   CHANNELS 3 Zrotation Xrotation Yrotation
                                   End Site
                                   {
                                        OFFSET -16.63120 -0.60000 1.50291
                                   }
                              }
                         }
                    }
               }
          }
     }
     JOINT LeftUpLeg
     {
          OFFSET 8.94580 -8.66707 0.10165
          CHANNELS 3 Zrotation Xrotation Yrotation
          JOINT LeftLeg
          {
               OFFSET -0.00000 -44.42270 1.37270
               CHANNELS 3 Zrotation Xrotation Yrotation
               JOINT LeftFoot
               {
                    OFFSET -0.25355 -42.09240 -1.46059
                    CHANNELS 3 Zrotation Xrotation Yrotation
                    JOINT LeftToes
                    {
                         OFFSET -0.04000 -4.41509 8.49910
                         CHANNELS 3 Zrotation Xrotation Yrotation
                         End Site
                         {
                              OFFSET 0.08000 -0.04745 9.77979
                         }
                    }
               }
          }
     }
     JOINT RightUpLeg
     {
          OFFSET -8.94580 -8.66707 0.10165
          CHANNELS 3 Zrotation Xrotation Yrotation
          JOINT RightLeg
          {
               OFFSET 0.00000 -44.42270 1.37270
               CHANNELS 3 Zrotation Xrotation Yrotation
               JOINT RightFoot
               {
                    OFFSET 0.25355 -42.09240 -1.46059
                    CHANNELS 3 Zrotation Xrotation Yrotation
                    JOINT RightToes
                    {
                         OFFSET 0.04000 -4.41509 8.49910
                         CHANNELS 3 Zrotation Xrotation Yrotation
                         End Site
                         {
                              OFFSET -0.08000 -0.13745 9.77979
                         }
                    }
               }
          }
     }
}
MOTION
Frames: 20
Frame Time: 0.01667
25.62650 96.38690 -17.75550 -9.35047 -11.96940 -35.63030 -2.83645 11.12690 -0.46916 -1.03462 22.07640 -1.83878 -3.07762 -6.15247 15.86030 -0.00000 0.00000 -0.00000 -125.84500 -56.52280 -108.93800 -32.08470 46.89490 -77.01410 18.89840 7.55832 -10.39510 6.67430 0.42996 1.05346 91.23250 1.15254 81.53520 8.20362 30.37510 98.03270 7.56332 10.76520 7.75688 15.18450 1.28980 -10.47020 -20.78940 7.15375 60.81330 -9.23187 6.47878 1.08337 8.12495 -13.09790 -62.15740 -23.97770 13.02560 15.12610 37.12200 0.80124 -24.92000 -24.30240 -3.36481 0.78665 1.99620 -20.27640 7.65370 
25.49250 96.23510 -17.87400 -9.52829 -12.07710 -36.02080 -2.83009 11.19400 -0.42551 -0.91681 22.20760 -1.78424 -3.05525 -6.45294 16.04140 -0.00000 0.00000 -0.00000 -123.78700 -56.79070 -107.25900 -31.37070 45.44570 -77.29290 18.63800 7.62123 -10.21400 6.49933 0.43294 1.12678 91.45850 1.63260 81.45070 8.06022 30.32830 97.96940 7.52958 10.75960 7.72827 15.62970 1.32237 -10.54660 -21.36610 7.36846 61.69680 -8.84822 6.78752 1.05772 7.66588 -14.56900 -62.76550 -23.78550 13.25670 14.83990 36.88360 0.81654 -24.91100 -25.17100 -3.17820 0.86397 1.90935 -19.53530 8.50985 
25.38600 96.09040 -17.99870 -9.87691 -12.21890 -36.43140 -2.75998 11.31160 -0.39146 -0.77159 22.44450 -1.72780 -2.81176 -6.95656 16.42650 -0.00000 0.00000 -0.00000 -122.38400 -57.01800 -105.99900 -30.90030 44.38010 -77.37630 18.39070 7.67845 -10.05300 6.52334 0.44990 1.28886 91.52910 2.01644 81.35770 7.73661 30.25010 98.03680 7.48514 10.75230 7.69167 16.25460 1.42243 -10.85920 -22.13180 7.54422 62.71470 -8.31374 7.03415 1.00650 7.20504 -15.94330 -63.14600 -23.60800 13.47550 14.63330 36.83420 0.98962 -24.92210 -25.88900 -2.90598 0.95813 1.94768 -19.58710 9.46837 
25.29490 95.95410 -18.12650 -10.33010 -12.38710 -36.82880 -2.69663 11.46730 -0.37085 -0.61255 22.75800 -1.70706 -2.61997 -7.30334 16.75560 -0.00000 0.00000 -0.00000 -121.56600 -57.24490 -105.09500 -30.66250 43.67950 -77.30920 18.16490 7.72351 -9.94820 6.74415 0.48902 1.61109 91.42180 2.22768 81.24810 7.42960 30.15150 98.10690 7.43910 10.74810 7.69903 17.01460 1.44987 -11.51380 -23.14320 7.80707 63.90390 -7.86844 7.15110 0.95660 6.88625 -16.83970 -63.20480 -23.45650 13.66210 14.50640 36.96800 1.27169 -24.98990 -26.55050 -2.48052 1.09050 2.18257 -20.71260 10.49750 
25.19750 95.82580 -18.26130 -10.77510 -12.57870 -37.17520 -2.71566 11.64070 -0.36237 -0.44857 23.10100 -1.75492 -2.66041 -7.30981 16.87690 -0.00000 0.00000 -0.00000 -120.92600 -57.45610 -104.24500 -30.58770 43.11710 -77.16850 17.93430 7.75817 -9.91272 7.04679 0.54608 2.06595 91.19940 2.27343 81.12170 7.31191 30.05110 98.05040 7.42822 10.75150 7.76384 17.83410 1.25042 -12.48500 -24.43670 8.27478 65.31800 -7.62027 7.24587 0.93018 6.73921 -17.22080 -63.01920 -23.35770 13.81350 14.45880 37.22830 1.57316 -25.15850 -27.24210 -1.98952 1.24595 2.56584 -22.51360 11.44250 
25.07720 95.71650 -18.40310 -11.12430 -12.79960 -37.45410 -2.84638 11.81290 -0.35807 -0.29422 23.43090 -1.86803 -2.88115 -7.05122 16.86580 -0.00000 0.00000 -0.00000 -120.17800 -57.60790 -103.27400 -30.66620 42.54410 -76.96770 17.68250 7.78643 -9.93653 7.32420 0.60395 2.51455 90.92050 2.25150 80.98900 7.42545 29.96190 97.81930 7.46132 10.76220 7.86577 18.66050 0.78467 -13.63630 -26.01570 8.91924 66.99100 -7.43349 7.54807 0.92351 6.66831 -17.38450 -62.77370 -23.33160 13.94670 14.49380 37.53220 1.82988 -25.38770 -27.91010 -1.59208 1.38251 2.95951 -24.27910 12.13570 
24.93050 95.64410 -18.54210 -11.34600 -13.05150 -37.67690 -3.07046 11.96660 -0.34790 -0.17846 23.71490 -2.00676 -3.10839 -6.69665 16.87950 -0.00000 0.00000 -0.00000 -119.31300 -57.66460 -102.25900 -30.89400 41.98080 -76.70300 17.40920 7.81631 -9.96845 7.55144 0.64480 2.80739 90.58430 2.27000 80.86080 7.69793 29.88300 97.45680 7.49548 10.77410 7.98157 19.46850 0.12273 -14.76700 -27.80940 9.63160 68.87470 -7.10686 8.25839 0.91961 6.55455 -17.68580 -62.64430 -23.37990 14.07670 14.61240 37.80280 2.01991 -25.61090 -28.42280 -1.36965 1.46926 3.24746 -25.52750 12.54340 
24.76260 95.62250 -18.65900 -11.43120 -13.33260 -37.87040 -3.37065 12.08280 -0.32308 -0.13595 23.91930 -2.12883 -3.23477 -6.33159 17.00820 -0.00000 0.00000 -0.00000 -118.40200 -57.61940 -101.34000 -31.14510 41.49230 -76.45690 17.11170 7.85858 -9.93701 7.74813 0.66320 2.90046 90.16740 2.35596 80.73900 8.00514 29.80810 97.05990 7.49294 10.78210 8.09634 20.20710 -0.62214 -15.65470 -29.64780 10.34430 70.76930 -6.60629 9.39898 0.90850 6.36119 -18.22760 -62.65500 -23.51710 14.20490 14.78720 37.99420 2.15251 -25.76610 -28.68860 -1.29287 1.50499 3.40136 -26.17540 12.75120 
24.58350 95.65330 -18.73150 -11.37080 -13.63660 -38.06770 -3.74995 12.14350 -0.27716 -0.17551 24.00950 -2.21679 -3.29216 -5.93138 17.25950 -0.00000 0.00000 -0.00000 -117.54500 -57.51260 -100.60400 -31.25310 41.13410 -76.34580 16.79420 7.91499 -9.82220 7.86411 0.66349 2.86039 89.71560 2.46464 80.61780 8.22008 29.73440 96.73750 7.46876 10.78600 8.18885 20.79920 -1.34883 -16.11090 -31.32180 11.06410 72.37240 -6.08167 10.75200 0.89364 6.14564 -18.82890 -62.66610 -23.78090 14.31790 14.96980 38.10640 2.24367 -25.79800 -28.71600 -1.27904 1.51025 3.45930 -26.40610 12.84890 
24.40710 95.72420 -18.73910 -11.17480 -13.94270 -38.30840 -4.19800 12.14020 -0.21085 -0.26809 23.96880 -2.27664 -3.38629 -5.47348 17.59400 -0.00000 0.00000 -0.00000 -116.96600 -57.43280 -100.17100 -31.22030 40.98510 -76.37070 16.49000 7.97258 -9.68215 7.76384 0.65172 2.79201 89.36150 2.54589 80.50730 8.25706 29.66750 96.56740 7.45996 10.78870 8.23932 21.20020 -1.99106 -16.04970 -32.66580 11.81290 73.48590 -5.67994 11.98970 0.88271 5.95734 -19.34760 -62.61990 -24.19230 14.39440 15.12810 38.16820 2.29972 -25.67670 -28.60560 -1.24431 1.51274 3.47604 -26.48190 12.85700 
24.24970 95.81360 -18.66620 -10.89160 -14.20940 -38.62250 -4.66096 12.08050 -0.13570 -0.37698 23.81460 -2.31545 -3.59552 -5.01747 17.94720 -0.00000 0.00000 -0.00000 -116.89900 -57.45510 -100.17800 -31.20780 41.10130 -76.42420 16.25510 8.01466 -9.58742 7.39336 0.63387 2.76593 89.19620 2.57752 80.45660 8.13571 29.62030 96.54380 7.47394 10.79210 8.26567 21.44360 -2.53276 -15.55420 -33.60220 12.56100 74.16950 -5.42214 12.89280 0.87564 5.75742 -19.90630 -62.70580 -24.71040 14.41380 15.26030 38.20520 2.32358 -25.41410 -28.47670 -1.14751 1.53017 3.48245 -26.56620 12.74330 
24.12970 95.89430 -18.49460 -10.60270 -14.38000 -39.00450 -5.02771 11.98240 -0.07989 -0.47585 23.58920 -2.32862 -3.96438 -4.64160 18.23530 -0.00000 0.00000 -0.00000 -117.32200 -57.56250 -100.62500 -31.31910 41.40920 -76.43790 16.12940 8.03352 -9.56233 6.85960 0.61362 2.77786 89.17960 2.57611 80.53230 7.98988 29.60140 96.57870 7.47534 10.79630 8.32216 21.64000 -3.01358 -14.86550 -34.16760 13.23030 74.62420 -5.24937 13.38380 0.86414 5.47757 -20.69170 -63.11150 -25.23740 14.37150 15.38620 38.22970 2.32205 -25.06820 -28.38260 -1.01135 1.55971 3.48056 -26.67290 12.50290 
24.05730 95.94930 -18.23310 -10.35400 -14.42540 -39.42870 -5.23535 11.86930 -0.05397 -0.54590 23.33950 -2.31747 -4.55698 -4.35312 18.37030 -0.00000 0.00000 -0.00000 -117.97500 -57.67260 -101.32800 -31.51010 41.72740 -76.43740 16.11800 8.03021 -9.59703 6.30362 0.59214 2.78738 89.21920 2.57907 80.76700 7.97921 29.61050 96.57180 7.41477 10.79840 8.44580 21.89470 -3.45818 -14.26690 -34.44940 13.63810 74.96450 -5.09980 13.44540 0.83911 5.14412 -21.60080 -63.71400 -25.70100 14.26250 15.51750 38.24320 2.30398 -24.70980 -28.33470 -0.86815 1.59376 3.47462 -26.79540 12.19570 
24.03280 95.97240 -17.90390 -10.15820 -14.35290 -39.85310 -5.27717 11.75900 -0.06211 -0.57843 23.09900 -2.30497 -5.41152 -4.09113 18.30880 -0.00000 0.00000 -0.00000 -118.60800 -57.73200 -102.09200 -31.70610 41.91800 -76.46040 16.20940 8.00735 -9.68204 5.81788 0.57261 2.78824 89.26260 2.59782 81.13630 8.18436 29.64390 96.48040 7.27386 10.79440 8.61265 22.25140 -3.87692 -13.94360 -34.49570 13.66220 75.14770 -5.04004 13.06150 0.81367 4.91102 -22.21490 -64.19030 -26.06890 14.10430 15.63470 38.23800 2.27757 -24.39330 -28.34550 -0.72934 1.63033 3.48326 -26.99440 11.88720 
24.05160 95.95960 -17.51590 -10.03130 -14.17960 -40.23060 -5.15298 11.65640 -0.11673 -0.57323 22.87970 -2.31886 -6.40561 -3.82104 18.13280 -0.00000 0.00000 -0.00000 -119.08900 -57.73960 -102.79400 -31.86830 41.94960 -76.50890 16.38290 7.96548 -9.82949 5.46486 0.55985 2.80444 89.29850 2.61402 81.57730 8.54167 29.69120 96.34190 7.07129 10.78180 8.76042 22.71660 -4.28520 -13.94810 -34.30240 13.33120 75.09220 -5.23408 12.26840 0.81743 4.94012 -22.13900 -64.32310 -26.31960 13.94240 15.71120 38.20750 2.24647 -24.15520 -28.42170 -0.61048 1.66607 3.51675 -27.31740 11.59090 
24.11160 95.90120 -17.04460 -10.01050 -13.91360 -40.52760 -4.80863 11.55700 -0.24388 -0.52682 22.68080 -2.36552 -7.27817 -3.59314 18.02480 -0.00000 0.00000 -0.00000 -119.39200 -57.70840 -103.36700 -31.94930 41.87170 -76.57670 16.61950 7.90201 -10.07040 5.25621 0.55473 2.84159 89.34910 2.62415 82.02180 8.87423 29.73520 96.23680 6.82429 10.75980 8.85041 23.29690 -4.70165 -14.26340 -33.87200 12.77900 74.77520 -5.82512 11.15850 0.87058 5.28049 -21.24800 -64.08170 -26.43590 13.83610 15.75060 38.15880 2.21194 -24.02450 -28.52150 -0.56233 1.68516 3.56295 -27.69980 11.31950 
24.20250 95.79970 -16.50400 -10.08660 -13.58970 -40.76420 -4.26180 11.46480 -0.41932 -0.43428 22.51390 -2.42932 -7.85142 -3.47987 18.10620 -0.00000 0.00000 -0.00000 -119.66000 -57.64010 -103.85900 -31.93710 41.80140 -76.62720 16.91170 7.81563 -10.41350 5.12781 0.55276 2.87844 89.46550 2.65480 82.42160 9.04229 29.76820 96.21410 6.52541 10.72830 8.89079 23.98170 -5.06035 -14.89680 -33.21700 11.94860 74.26200 -6.78764 9.89037 0.96140 5.88851 -19.60340 -63.52430 -26.45670 13.79240 15.77810 38.11100 2.18072 -23.99730 -28.60100 -0.62808 1.67328 3.60108 -27.99730 11.13890 
24.32200 95.65080 -15.88500 -10.26260 -13.23140 -40.96010 -3.49345 11.38380 -0.63712 -0.28747 22.39580 -2.49683 -8.14557 -3.49628 18.35950 -0.00000 0.00000 -0.00000 -120.12100 -57.53030 -104.39900 -31.90610 41.84750 -76.58430 17.23090 7.71694 -10.80310 5.00768 0.54996 2.90291 89.68230 2.72918 82.75160 9.04322 29.80150 96.25730 6.16299 10.68870 8.92068 24.77200 -5.32767 -15.87190 -32.40800 10.84310 73.65710 -8.02188 8.51061 1.06274 6.69851 -17.29150 -62.71240 -26.41950 13.82470 15.81740 38.08450 2.16360 -24.03960 -28.62130 -0.82962 1.62199 3.62041 -28.11910 11.09980 
24.47200 95.44720 -15.17990 -10.53500 -12.84530 -41.12950 -2.51099 11.31370 -0.89814 -0.08207 22.33270 -2.57041 -8.28246 -3.59488 18.70120 -0.00000 0.00000 -0.00000 -120.83500 -57.38660 -105.03600 -31.94090 42.00360 -76.39740 17.50290 7.62944 -11.14560 4.89859 0.54882 2.94172 89.97150 2.84156 82.99250 8.96694 29.84500 96.31430 5.75184 10.64560 8.99118 25.67030 -5.51095 -17.16540 -31.52870 9.51729 73.05540 -9.27726 6.98332 1.12651 7.61704 -14.46680 -61.67810 -26.34760 13.93480 15.86230 38.08460 2.16915 -24.08860 -28.59300 -1.12254 1.54376 3.62873 -28.12500 11.16210 
24.63390 95.11680 -14.40900 -10.78140 -12.52060 -41.31650 -1.64932 11.27060 -1.11867 0.11741 22.32390 -2.65102 -8.36886 -3.70925 19.05400 -0.00000 0.00000 -0.00000 -121.62200 -57.23370 -105.66700 -32.04730 42.15260 -76.09020 17.64820 7.57583 -11.36950 4.85700 0.55522 3.03610 90.26430 2.97243 83.12470 8.91908 29.88930 96.33840 5.34504 10.60610 9.12919 26.49170 -5.75313 -18.58750 -30.63390 8.35969 72.52580 -10.38350 5.26708 1.12414 8.50798 -11.43560 -60.44710 -26.28840 13.63370 15.73150 38.14230 3.17171 -24.34070 -28.37700 -1.87029 1.33684 3.64598 -28.17140 11.23250 
